<?xml version="1.0" encoding="utf-8"?>
<!-- Generator: Adobe Illustrator 25.0.0, SVG Export Plug-In . SVG Version: 6.00 Build 0)  -->
<svg version="1.1" id="图层_1" xmlns="http://www.w3.org/2000/svg" xmlns:xlink="http://www.w3.org/1999/xlink" x="0px" y="0px"
	 viewBox="0 0 64 64" style="enable-background:new 0 0 64 64;" xml:space="preserve">
<style type="text/css">
	.st0{fill-rule:evenodd;clip-rule:evenodd;fill:#FFFFFF;}
</style>
<path class="st0" d="M55.1,19.1c0.5,0.4,0.5,1.1,0,1.5l-9.4,7.8C45,29,44,28.5,44,27.7v-5.3H9c-0.6,0-1-0.4-1-1v-3c0-0.6,0.4-1,1-1
	h35V12c0-0.8,1-1.3,1.6-0.8L55.1,19.1z M8.9,45.3c-0.5-0.4-0.5-1.1,0-1.5l9.4-7.8c0.7-0.5,1.6-0.1,1.6,0.8V42h35c0.6,0,1,0.4,1,1v3
	c0,0.6-0.4,1-1,1H20v5.3c0,0.8-1,1.3-1.6,0.8L8.9,45.3z"/>
</svg>
